<?xml version="1.0" encoding="UTF-8" standalone="no"?>
<!-- Created with Inkscape (http://www.inkscape.org/) -->

<svg
   width="210mm"
   height="297mm"
   viewBox="0 0 210 297"
   version="1.1"
   id="svg5"
   xml:space="preserve"
   inkscape:version="1.2.2 (732a01da63, 2022-12-09)"
   sodipodi:docname="Logo.svg"
   xmlns:inkscape="http://www.inkscape.org/namespaces/inkscape"
   xmlns:sodipodi="http://sodipodi.sourceforge.net/DTD/sodipodi-0.dtd"
   xmlns="http://www.w3.org/2000/svg"
   xmlns:svg="http://www.w3.org/2000/svg"><sodipodi:namedview
     id="namedview7"
     pagecolor="#ffffff"
     bordercolor="#000000"
     borderopacity="0.25"
     inkscape:showpageshadow="2"
     inkscape:pageopacity="0.0"
     inkscape:pagecheckerboard="0"
     inkscape:deskcolor="#d1d1d1"
     inkscape:document-units="mm"
     showgrid="false"
     inkscape:zoom="0.3108143"
     inkscape:cx="-516.38551"
     inkscape:cy="514.77683"
     inkscape:window-width="1600"
     inkscape:window-height="877"
     inkscape:window-x="-8"
     inkscape:window-y="-8"
     inkscape:window-maximized="1"
     inkscape:current-layer="layer1" /><defs
     id="defs2"><marker
       id="DistanceX"
       orient="auto"
       refX="0.0"
       refY="0.0"
       style="overflow:visible"><path
         d="M 3,-3 L -3,3 M 0,-5 L  0,5"
         style="stroke:#000000; stroke-width:0.5"
         id="path11" /></marker><pattern
       id="Hatch"
       patternUnits="userSpaceOnUse"
       width="8"
       height="8"
       x="0"
       y="0"><path
         d="M8 4 l-4,4"
         stroke="#000000"
         stroke-width="0.25"
         linecap="square"
         id="path14" /><path
         d="M6 2 l-4,4"
         stroke="#000000"
         stroke-width="0.25"
         linecap="square"
         id="path16" /><path
         d="M4 0 l-4,4"
         stroke="#000000"
         stroke-width="0.25"
         linecap="square"
         id="path18" /></pattern><symbol
       id="*Model_Space" /><symbol
       id="*Paper_Space" /><symbol
       id="*Paper_Space0" /></defs><g
     inkscape:label="Capa 1"
     inkscape:groupmode="layer"
     id="layer1"><g
       inkscape:label="0"
       id="g64"
       transform="matrix(0.08566399,0,0,0.08566399,-296.00368,206.02085)"
       style="stroke-width:1.00392;stroke-dasharray:none"><path
         d="M 923.24735,-258.2669 A 24704.332,24704.332 0 0 0 2412.1449,-1177.2423"
         style="fill:none;stroke:#000000;stroke-width:1.00392;stroke-linecap:round;stroke-dasharray:none"
         id="path26" /><path
         d="M 2581.0525,-443.46665 A 22287,22287 0 0 0 923.24735,-258.2669"
         style="fill:none;stroke:#000000;stroke-width:1.00392;stroke-linecap:round;stroke-dasharray:none"
         id="path28" /><path
         d="M 2869.662,341.75918 A 7553.2835,7553.2835 0 0 0 1987.7676,-121.46886"
         style="fill:none;stroke:#000000;stroke-width:1.00392;stroke-linecap:round;stroke-dasharray:none"
         id="path30" /><path
         style="fill:none;stroke:#000000;stroke-width:1.00392;stroke-linecap:round;stroke-dasharray:none"
         d="m 2241.26,-1975.84 -960.94,569.47"
         id="path32" /><path
         style="fill:none;stroke:#000000;stroke-width:1.00392;stroke-linecap:round;stroke-dasharray:none"
         d="m 1684.18,-1070.6 -403.86,-335.77"
         id="path34" /><path
         style="fill:none;stroke:#000000;stroke-width:1.00392;stroke-linecap:round;stroke-dasharray:none"
         d="m 1684.18,-1070.6 170.13,-79.53"
         id="path36" /><path
         style="fill:none;stroke:#000000;stroke-width:1.00392;stroke-linecap:round;stroke-dasharray:none"
         d="m 1854.31,-1150.13 557.83,-27.11"
         id="path38" /><path
         style="fill:none;stroke:#000000;stroke-width:1.00392;stroke-linecap:round;stroke-dasharray:none"
         d="m 2581.05,-443.467 -593.28,321.998"
         id="path40" /><path
         style="fill:none;stroke:#000000;stroke-width:1.00392;stroke-linecap:round;stroke-dasharray:none"
         d="m 2869.66,341.759 193.27,-208.14"
         id="path42" /><path
         style="fill:none;stroke:#000000;stroke-width:1.00392;stroke-linecap:round;stroke-dasharray:none"
         d="M 3062.93,133.619 2493.59,-165.437"
         id="path44" /><path
         style="fill:none;stroke:#000000;stroke-width:1.00392;stroke-linecap:round;stroke-dasharray:none"
         d="M 2493.59,-165.437 3044.86,-423.14"
         id="path46" /><path
         style="fill:none;stroke:#000000;stroke-width:1.00392;stroke-linecap:round;stroke-dasharray:none"
         d="m 3044.86,-423.14 136.71,81.792"
         id="path48" /><path
         style="fill:none;stroke:#000000;stroke-width:1.00392;stroke-linecap:round;stroke-dasharray:none"
         d="m 3181.57,-341.348 -154.62,-327.05"
         id="path50" /><path
         style="fill:none;stroke:#000000;stroke-width:1.00392;stroke-linecap:round;stroke-dasharray:none"
         d="m 3026.95,-668.398 -1035.47,50.332"
         id="path52" /><path
         style="fill:none;stroke:#000000;stroke-width:1.00392;stroke-linecap:round;stroke-dasharray:none"
         d="M 1991.48,-618.066 3222.86,-1447.49"
         id="path54" /><path
         style="fill:none;stroke:#000000;stroke-width:1.00392;stroke-linecap:round;stroke-dasharray:none"
         d="m 3222.86,-1447.49 -1538.68,61.31"
         id="path56" /><path
         style="fill:none;stroke:#000000;stroke-width:1.00392;stroke-linecap:round;stroke-dasharray:none"
         d="m 1684.18,-1386.18 523,-309.93"
         id="path58" /><path
         style="fill:none;stroke:#000000;stroke-width:1.00392;stroke-linecap:round;stroke-dasharray:none"
         d="m 2207.18,-1696.11 139.36,105.27"
         id="path60" /><path
         style="fill:none;stroke:#000000;stroke-width:1.00392;stroke-linecap:round;stroke-dasharray:none"
         d="m 2346.54,-1590.84 -105.28,-385"
         id="path62" /></g><path
       style="display:none;fill:#ffd42a;stroke-width:0.14235"
       d=""
       id="path337"
       transform="scale(0.26458333)" /><path
       style="display:inline;fill:#bdaea8;fill-opacity:1;stroke:none;stroke-width:0;stroke-dasharray:none;stroke-opacity:1"
       d="m 167.76712,241.94467 c -17.61821,-10.74257 -46.84772,-26.1147 -65.50969,-34.45227 -2.282427,-1.01972 -4.14988,-1.97778 -4.14988,-2.12903 0,-0.15125 11.06104,-6.26941 24.58008,-13.59592 13.51905,-7.32651 24.76205,-13.48885 24.98444,-13.69408 0.61026,-0.56317 -0.87739,-0.48626 -17.4904,0.9043 -38.915,3.25729 -79.3916,7.86137 -114.57493,13.03251 -4.05749,0.59636 -7.4484601,1.01308 -7.5354901,0.92605 -0.087,-0.087 4.2861601,-2.72197 9.7182001,-5.85541 24.09372,-13.8983 59.90168,-35.71237 83.51031,-50.87417 7.50982,-4.8229 31.02763,-20.16862 32.09954,-20.94542 0.68925,-0.49949 -2.9053,-0.40396 -24.25148,0.64451 l -24.02197,1.1799 -7.10667,3.33203 -7.10668,3.33204 -17.03854,-14.19263 C 43.14683,100.62168 37.02907,95.253966 37.35821,95.066183 37.64575,94.902133 55.97665,84.039061 78.09355,70.92602 c 22.1169,-13.11304 40.25623,-23.798201 40.30963,-23.744798 0.18355,0.183544 8.57697,31.133814 8.47174,31.239045 -0.0579,0.0579 -2.48418,-1.716173 -5.39171,-3.94239 -2.90753,-2.226217 -5.59115,-3.997211 -5.96359,-3.935542 -1.39821,0.231513 -45.22178,26.502812 -44.4106,26.623213 0.45234,0.06714 29.91454,-1.039132 65.47155,-2.458378 35.55701,-1.419254 64.69235,-2.527618 64.74521,-2.463036 0.0529,0.06458 -22.96354,15.631606 -51.14755,34.593386 -28.18401,18.96178 -51.764917,34.90525 -52.40202,35.42992 l -1.15837,0.95395 3.40504,-0.22672 c 8.39872,-0.55923 83.46324,-4.05362 84.59983,-3.93827 1.22318,0.12413 1.49911,0.61267 7.38641,13.07793 3.36367,7.12195 6.04884,13.01593 5.96703,13.09773 -0.0818,0.0818 -2.41278,-1.19633 -5.17995,-2.8403 -2.76717,-1.64397 -5.18384,-2.98903 -5.37038,-2.98903 -0.43484,0 -46.8648,21.67706 -47.27858,22.07327 -0.17074,0.16347 10.40312,5.92538 23.49746,12.80423 13.09434,6.87885 24.037,12.6486 24.31702,12.82166 0.33502,0.20706 -2.22225,3.23996 -7.4776,8.8684 -4.39272,4.70454 -8.10896,8.54781 -8.25832,8.54058 -0.14937,-0.007 -2.15577,-1.16202 -4.45868,-2.5662 z"
       id="path5296" /></g></svg>
